<?xml version="1.0" encoding="UTF-8"?>
<svg id="Capa_1" xmlns="http://www.w3.org/2000/svg" version="1.1" viewBox="0 0 122.34 122.34">
  <!-- Generator: Adobe Illustrator 29.8.1, SVG Export Plug-In . SVG Version: 2.1.1 Build 2)  -->
  <defs>
    <style>
      .st0, .st1 {
        fill: #e23616;
      }

      .st1 {
        opacity: .14;
      }
    </style>
  </defs>
  <circle class="st1" cx="61.17" cy="61.17" r="61.17"/>
  <g>
    <g>
      <path class="st0" d="M62.81,73.23c-.56,0-1.1-.33-1.35-.87-.33-.74,0-1.61.75-1.94,1.98-.88.83-6.76-.76-10.67-.31-.75.05-1.61.81-1.92.75-.31,1.61.05,1.92.81.5,1.22,4.73,12.02-.76,14.47-.19.09-.4.13-.6.13Z"/>
      <path class="st0" d="M78.89,55.33c-.16-1.85-1.4-2.25-1.78-2.32-.11-.02-.31-.05-.55-.03-1.09-.3-2.32-.18-3.6.25-2.54.85-4.96,2.17-7.36,3.23-2.1.93.01,3.12,2.1,2.2,1.47-.66,2.95-1.31,4.42-1.97.62-.27,1.23-.59,1.87-.83.02,0,.04-.01.05-.02-.04.14-.07.28-.1.43h0c-.14.69-.19,1.36-.14,1.92.16,1.85,1.4,2.25,1.78,2.32.09.02.23.04.4.04.56,0,1.48-.22,2.15-1.48.27-.5.48-1.13.62-1.82.14-.69.19-1.36.14-1.92Z"/>
      <path class="st0" d="M57.72,58.25c-.16-1.85-1.4-2.25-1.78-2.32-.13-.03-.32-.05-.55-.03-1.09-.3-2.32-.18-3.6.25-2.54.85-4.96,2.17-7.36,3.23-2.1.93.01,3.12,2.1,2.2,1.47-.66,2.95-1.31,4.42-1.97.62-.27,1.23-.59,1.87-.83.02,0,.04-.01.05-.02-.04.14-.07.27-.1.43h0c-.14.69-.19,1.36-.14,1.92.16,1.85,1.4,2.25,1.78,2.32.09.02.23.04.4.04.56,0,1.48-.22,2.15-1.48.27-.5.48-1.13.62-1.82.14-.69.19-1.36.14-1.92Z"/>
      <path class="st0" d="M58.49,75.62c1.38,1.14,3.26,1.67,5.04,1.38,2.34-.38,3.34,3.19.99,3.58-3.2.52-6.15-.26-8.65-2.33-1.84-1.53.8-4.14,2.62-2.62Z"/>
    </g>
    <path class="st0" d="M51.16,86.35l22.99,10.5c.95.43,1.95.65,2.96.65,1.15,0,2.29-.28,3.34-.84,1.97-1.05,3.31-2.91,3.67-5.12l2.42-14.65c1.85.89,4.03,1.28,6.01,1.51,2.62.3,5.33.45,7.97.31,2.63-.14,5.31-.83,7.09-2.9,1.45-1.67,2.13-3.86,2.34-6.03.48-4.97-1.47-10.13-4.4-14.08-1.61-2.17-3.58-3.98-5.79-5.51-2.28-1.58-4.64-3-6.76-4.78-4.06-3.42-7.39-7.6-10.66-11.75-3.32-4.21-6.63-8.57-10.79-12.01-3.79-3.13-8.28-5-13.17-5.48-4.66-.46-9.42.27-13.83,1.79-4.95,1.7-9.74,4.34-12.94,8.6-2.97,3.95-4.54,8.79-5.44,13.6-1.05,5.59-1.29,11.28-2.22,16.89-.83,5.03-2.35,9.9-3.4,14.89-1.01,4.8-1.61,9.85-.43,14.67,1.08,4.43,3.64,8.53,7.24,11.34,3.52,2.75,7.91,4.04,12.34,3.37,4.23-.63,8.31-2.96,10.61-6.63,1.22-1.94,2.2-4.6,1.38-6.96M80.91,91.01c-.2,1.19-.92,2.2-1.99,2.77-1.07.57-2.31.61-3.41.1l-37.63-17.19c-1.09-.5-1.9-1.45-2.22-2.6-.25-.89-.37-1.82-.38-2.75-.02-4.04,1.77-7.85,3.73-11.28,1.13-1.98,2.36-3.91,3.66-5.79,1.11-1.62,2.29-3.2,3.37-4.85,2.1-3.2,4.14-7.07,3.21-11.01-.09-.38.23-.8.64-.61,3.21,1.5,4.25,5,4.6,8.37.02.17.26.18.3.02,1.16-4.58-.52-9.64-2.06-13.97-.15-.42.38-.88.75-.54,3.7,3.4,7.87,6.27,12.38,8.5,2.27,1.13,4.61,2.09,7.02,2.89,1.19.39,2.39.74,3.6,1.05.55.14,1.1.27,1.66.39.62.14,1.28.22,1.86.48,1.2.53,1.62,1.77,2.02,2.91.45,1.3.85,2.62,1.2,3.95.72,2.7,1.24,5.45,1.56,8.23.17,1.48.28,2.97.33,4.46.02.64-.03,1.27-.13,1.9l-4.05,24.54Z"/>
  </g>
</svg>
