<?xml version="1.0" encoding="UTF-8"?>
<svg id="Capa_1" xmlns="http://www.w3.org/2000/svg" version="1.1" viewBox="0 0 122.34 122.34">
  <!-- Generator: Adobe Illustrator 29.8.1, SVG Export Plug-In . SVG Version: 2.1.1 Build 2)  -->
  <defs>
    <style>
      .st0 {
        opacity: .14;
      }

      .st0, .st1 {
        fill: #0085f4;
      }
    </style>
  </defs>
  <circle class="st0" cx="61.17" cy="61.17" r="61.17"/>
  <g>
    <g>
      <path class="st1" d="M54.75,79.05c-1.21,0-2.23-.94-2.32-2.16-.92-11.85-.26-19.29-.23-19.6.09-.95.93-1.64,1.87-1.55.95.09,1.64.92,1.56,1.87,0,.07-.62,7.02.15,17.92,1.26-.16,2.97-.48,3.64-.62.93-.2,1.84.39,2.05,1.32.2.93-.39,1.84-1.32,2.05-.69.15-3.81.76-5.35.79-.02,0-.03,0-.05,0ZM55.86,76.62h0,0Z"/>
      <path class="st1" d="M46.79,67.06c-.24,0-.46-.04-.68-.12-.32-.12-1.38-.63-1.33-2.26.02-.52.14-1.11.36-1.71.86-2.35,2.28-2.79,3.31-2.41,1.04.38,1.83,1.62.97,3.98-.69,1.87-1.72,2.53-2.63,2.53Z"/>
      <path class="st1" d="M51.46,86.53c-.73,0-1.17-.39-1.41-.69-.36-.47-.79-1.45.42-2.8.35-.39.85-.85,1.4-1.27.85-.66,3.11-2.41,4.4-.74,1.29,1.67-.97,3.41-1.82,4.07h0c-.55.43-1.11.8-1.58,1.04-.56.29-1.02.4-1.41.4Z"/>
      <path class="st1" d="M64.53,84.44c-.79,0-1.58-.19-2.04-.29h0c-1.05-.24-3.83-.89-3.35-2.94.13-.58.61-1.53,2.44-1.44.53.03,1.19.13,1.87.28,1.05.24,3.83.89,3.35,2.94-.27,1.15-1.26,1.45-2.27,1.45Z"/>
      <path class="st1" d="M56.89,90.44c-1.2,0-2.02-.32-2.18-1.43-.24-1.8,1.74-2.07,4.26-2.41,3.36-.46,3.73-.17,4.14.14l.51.39.19,1.3-.4.54c-.3.4-.59.78-3.95,1.24h0c-.96.13-1.83.25-2.57.25Z"/>
      <path class="st1" d="M64.89,64.6c-.24,0-.46-.04-.68-.12-1.04-.38-1.83-1.62-.97-3.98.86-2.35,2.28-2.79,3.31-2.41.32.12,1.38.63,1.33,2.26-.02.52-.14,1.11-.36,1.71-.69,1.87-1.72,2.53-2.63,2.53Z"/>
      <path class="st1" d="M41.37,58.17c-.48,0-.96-.2-1.3-.6-.62-.72-.54-1.8.17-2.42.13-.11,1.28-1.09,2.91-1.74,2.42-.97,4.73-.71,6.5.72.74.6.85,1.68.26,2.42-.6.74-1.68.85-2.42.25-1.97-1.6-4.97.92-5,.95-.32.28-.72.41-1.12.41Z"/>
      <path class="st1" d="M62.63,56.59c-.48,0-.96-.2-1.3-.6-.62-.72-.54-1.8.17-2.42.13-.11,1.28-1.09,2.91-1.74,2.42-.97,4.73-.71,6.5.72.74.6.85,1.68.26,2.42-.6.74-1.68.85-2.42.26-1.97-1.6-4.97.92-5,.95-.32.28-.72.41-1.12.41Z"/>
    </g>
    <path class="st1" d="M84.97,50.59c.43.33.86.67,1.3.99.96-2.05,1.54-4.28,1.72-6.54.39-4.82-.95-9.58-3.46-13.68-1.34-2.19-3-4.24-4.92-5.96-1.37-1.23-3.28-2.46-5.16-1.7-.4.16-.73-.31-.66-.66.8-3.74,1.12-7.56.95-11.38-4.76,2.52-9.65,4.79-14.71,6.66-4.76,1.76-9.65,3.14-14.64,4.05-2.43.44-4.89.83-7.21,1.7-2.03.76-3.89,1.97-5.44,3.48-3.07,2.97-4.97,7.05-5.26,11.31-.29,4.36.96,8.72,3.38,12.34.19.28,0,.73-.33.79-1.69.32-4,.8-4.86,2.49-.44.87-.29,1.85-.05,2.75.26.98.6,1.94.98,2.88.75,1.89,1.72,3.69,2.85,5.38,1.15,1.73,2.49,3.34,3.98,4.79l2.69,26.2c.47,3.8,3.65,6.58,7.44,6.58.09,0,.18,0,.26,0l45.73-1.55c3.83-.13,6.94-3.11,7.23-6.93l.02-.3-11.84-43.69ZM89.44,98.06l-45.73,1.55c-2.12.07-3.92-1.46-4.17-3.53l-5.12-49.76c-.09-.89.78-1.56,1.62-1.26,2.2.8,4.45,1.47,6.75,1.95,5.27,1.09,10.85,1.09,15.9-.9,4.04-1.59,7.7-4.44,9.84-8.24.35-.63.99-1.04,1.71-1.09h0c.74-.06,1.46.28,1.9.87,1.8,2.4,3.76,4.68,5.87,6.81,1.59,1.61,2.72,3.62,3.31,5.8l11.62,42.87c.61,2.24-.83,4.61-3.13,4.9-.12.01-.24.02-.37.03Z"/>
  </g>
</svg>
