<?xml version="1.0" encoding="UTF-8"?><svg id="Capa_1" xmlns="http://www.w3.org/2000/svg" viewBox="0 0 970.88 228.51"><defs><style>.cls-1{fill:#fbba00;}.cls-2{fill:#468f68;}.cls-3{fill:#e23616;}.cls-4{fill:#0085f4;}.cls-5{fill:#ecebd7;}.cls-6{fill:#b953a6;}</style></defs><path class="cls-6" d="M229.37,151.08c2.01-3.46,6.41-4.64,9.9-2.68l20.24,11.35c4.78,2.68,5.67,9.18,1.8,13.05l-24.1,24.1c-.47.47-.99.88-1.56,1.22l-24.49,14.85c-.97.59-2.05.94-3.18,1.04h-11.24c-4.4,0-7-4.93-4.52-8.57l37.15-54.37Z"/><path class="cls-1" d="M203.76,147.28l-19.25-9.38c-4.16-2.03-9.14.27-10.3,4.75l-19.78,76.6c-1.13,4.37,1.93,8.71,6.43,9.12l1.2.11c2.87.26,5.63-1.19,7.05-3.71l37.83-67.33c2.06-3.67.61-8.32-3.18-10.17Z"/><path class="cls-3" d="M158.98,100.92l61.97,34.75c4.21,2.36,9.51.08,10.68-4.6l17.53-69.76c.94-3.74-1.19-7.58-4.86-8.76l-56.97-18.27c-3.61-1.16-7.5.63-8.98,4.12l-22.53,53.29c-1.45,3.44-.09,7.41,3.16,9.24Z"/><path class="cls-4" d="M160.84,134.05l-18.57,75.3c-1.67,6.76-7.76,11.49-14.72,11.42l-119.83-1.13c-4.22-.04-7.62-3.47-7.62-7.69L0,67.73c0-8.96,7.79-15.94,16.7-14.93l22.19,2.5c1.96.22,3.85.82,5.58,1.78l109.06,60.24c5.94,3.28,8.95,10.15,7.32,16.74Z"/><path class="cls-2" d="M132.47,87.39l7.82-4.29c1.43-.78,2.56-2.02,3.2-3.52l18.85-43.74c1.8-4.18-.61-8.97-5.03-10.02l-31.42-7.45c-1.75-.42-3.6-.17-5.18.69l-10.07,5.47c-1.82.99-3.97,1.16-5.92.47L43.61,3.53c-.58-.2-1.19-.34-1.81-.39L5.02.01C3.1-.15,1.46,1.39,1.51,3.32l.64,26.27c.09,3.56,2.72,6.54,6.24,7.06l36.93,5.49c.9.13,1.77.43,2.56.89l77.43,44.31c2.21,1.27,4.92,1.29,7.16.06Z"/><path class="cls-5" d="M745.08,134.46v-36.72h14.58c2.24,0,4.24.45,6.01,1.34,1.76.89,3.15,2.15,4.14,3.78,1,1.63,1.49,3.58,1.49,5.85v.68c0,2.27-.51,4.23-1.55,5.87-1.03,1.64-2.42,2.9-4.17,3.78-1.75.87-3.72,1.31-5.93,1.31h-8.91v14.11h-5.67ZM750.74,115.22h8.34c1.99,0,3.58-.52,4.77-1.57,1.19-1.05,1.78-2.48,1.78-4.3v-.52c0-1.85-.59-3.3-1.78-4.35-1.19-1.05-2.78-1.57-4.77-1.57h-8.34v12.33Z"/><path class="cls-5" d="M789.24,135.2c-2.62,0-4.92-.55-6.87-1.65-1.96-1.1-3.49-2.66-4.59-4.67-1.1-2.01-1.65-4.34-1.65-7v-.63c0-2.69.54-5.04,1.63-7.05,1.08-2.01,2.6-3.57,4.54-4.67,1.94-1.1,4.19-1.65,6.74-1.65s4.66.55,6.53,1.65c1.87,1.1,3.33,2.63,4.38,4.59,1.05,1.96,1.57,4.25,1.57,6.87v2.04h-19.88c.07,2.27.83,4.08,2.28,5.43,1.45,1.35,3.26,2.02,5.43,2.02,2.03,0,3.56-.45,4.59-1.36,1.03-.91,1.83-1.96,2.39-3.15l4.46,2.31c-.49.98-1.2,2.01-2.12,3.1-.92,1.08-2.14,1.99-3.64,2.73-1.5.74-3.43,1.1-5.77,1.1ZM781.69,118.89h14.32c-.14-1.96-.84-3.49-2.1-4.59-1.26-1.1-2.9-1.65-4.93-1.65s-3.68.55-4.96,1.65c-1.28,1.1-2.05,2.63-2.33,4.59Z"/><path class="cls-5" d="M808.54,134.46v-25.86h5.3v3.04h.84c.42-1.08,1.09-1.88,2.02-2.39.93-.51,2.07-.76,3.44-.76h3.09v4.88h-3.3c-1.75,0-3.18.48-4.3,1.44-1.12.96-1.68,2.44-1.68,4.43v15.21h-5.4Z"/><path class="cls-5" d="M829.37,134.46v-25.86h5.3v3.04h.84c.49-.91,1.28-1.71,2.36-2.41,1.08-.7,2.55-1.05,4.4-1.05s3.47.39,4.64,1.18c1.17.79,2.05,1.79,2.65,3.01h.84c.59-1.19,1.46-2.18,2.6-2.99,1.14-.8,2.75-1.21,4.85-1.21,1.68,0,3.16.34,4.46,1.02,1.29.68,2.32,1.7,3.09,3.04.77,1.35,1.15,3.02,1.15,5.01v17.2h-5.4v-16.78c0-1.57-.43-2.79-1.29-3.64s-2.07-1.29-3.65-1.29c-1.68,0-3.02.54-4.04,1.63-1.01,1.08-1.52,2.64-1.52,4.67v15.42h-5.4v-16.78c0-1.57-.43-2.79-1.29-3.64-.86-.86-2.07-1.29-3.65-1.29-1.68,0-3.02.54-4.04,1.63-1.01,1.08-1.52,2.64-1.52,4.67v15.42h-5.4Z"/><path class="cls-5" d="M877.57,105.09c-1.05,0-1.93-.34-2.65-1.02-.72-.68-1.07-1.56-1.07-2.65s.36-1.97,1.07-2.65c.72-.68,1.6-1.02,2.65-1.02s1.97.34,2.68,1.02c.7.68,1.05,1.57,1.05,2.65s-.35,1.97-1.05,2.65c-.7.68-1.59,1.02-2.68,1.02ZM874.84,134.46v-25.86h5.4v25.86h-5.4Z"/><path class="cls-5" d="M899.39,135.2c-3.29,0-6.01-.73-8.18-2.2-2.17-1.47-3.5-3.69-3.99-6.66l5.03-1.21c.28,1.43.75,2.57,1.42,3.41.66.84,1.5,1.43,2.49,1.78,1,.35,2.07.52,3.22.52,1.71,0,3.03-.33,3.96-1,.92-.66,1.39-1.52,1.39-2.57s-.44-1.82-1.31-2.31-2.17-.89-3.88-1.21l-1.78-.32c-1.75-.31-3.34-.77-4.77-1.36-1.43-.59-2.57-1.42-3.41-2.46-.84-1.05-1.26-2.4-1.26-4.04,0-2.45.91-4.34,2.73-5.69,1.82-1.34,4.23-2.02,7.24-2.02s5.29.66,7.16,1.97c1.87,1.31,3.09,3.09,3.65,5.32l-5.03,1.42c-.31-1.57-.98-2.68-1.99-3.33-1.01-.65-2.27-.97-3.78-.97s-2.62.27-3.46.81c-.84.54-1.26,1.3-1.26,2.28,0,1.05.41,1.82,1.23,2.31.82.49,1.93.86,3.33,1.1l1.84.32c1.86.31,3.55.75,5.09,1.31,1.54.56,2.75,1.36,3.65,2.41s1.34,2.45,1.34,4.2c0,2.59-.96,4.6-2.88,6.03-1.92,1.43-4.51,2.15-7.76,2.15Z"/><path class="cls-5" d="M928.97,135.2c-2.59,0-4.89-.53-6.9-1.6-2.01-1.07-3.59-2.6-4.75-4.59-1.15-1.99-1.73-4.35-1.73-7.08v-.79c0-2.73.58-5.08,1.73-7.05s2.74-3.51,4.75-4.59c2.01-1.08,4.31-1.63,6.9-1.63s4.9.54,6.92,1.63c2.03,1.08,3.62,2.61,4.77,4.59,1.15,1.98,1.73,4.33,1.73,7.05v.79c0,2.73-.58,5.09-1.73,7.08-1.15,1.99-2.75,3.52-4.77,4.59s-4.34,1.6-6.92,1.6ZM928.97,130.37c2.38,0,4.31-.76,5.8-2.28,1.49-1.52,2.23-3.63,2.23-6.32v-.47c0-2.69-.74-4.8-2.2-6.32-1.47-1.52-3.41-2.28-5.82-2.28s-4.26.76-5.74,2.28c-1.49,1.52-2.23,3.63-2.23,6.32v.47c0,2.69.74,4.8,2.23,6.32,1.48,1.52,3.4,2.28,5.74,2.28Z"/><path class="cls-5" d="M960.23,135.2c-3.29,0-6.01-.73-8.18-2.2-2.17-1.47-3.5-3.69-3.99-6.66l5.03-1.21c.28,1.43.75,2.57,1.42,3.41.66.84,1.5,1.43,2.49,1.78,1,.35,2.07.52,3.22.52,1.71,0,3.03-.33,3.96-1,.92-.66,1.39-1.52,1.39-2.57s-.44-1.82-1.31-2.31-2.17-.89-3.88-1.21l-1.78-.32c-1.75-.31-3.34-.77-4.77-1.36-1.43-.59-2.57-1.42-3.41-2.46-.84-1.05-1.26-2.4-1.26-4.04,0-2.45.91-4.34,2.73-5.69,1.82-1.34,4.23-2.02,7.24-2.02s5.29.66,7.16,1.97c1.87,1.31,3.09,3.09,3.65,5.32l-5.03,1.42c-.31-1.57-.98-2.68-1.99-3.33-1.01-.65-2.27-.97-3.78-.97s-2.62.27-3.46.81c-.84.54-1.26,1.3-1.26,2.28,0,1.05.41,1.82,1.23,2.31.82.49,1.93.86,3.33,1.1l1.84.32c1.86.31,3.55.75,5.09,1.31,1.54.56,2.75,1.36,3.65,2.41s1.34,2.45,1.34,4.2c0,2.59-.96,4.6-2.88,6.03-1.92,1.43-4.51,2.15-7.76,2.15Z"/><path class="cls-5" d="M757.25,187.72c-2.48,0-4.73-.52-6.74-1.57-2.01-1.05-3.6-2.57-4.77-4.56-1.17-1.99-1.76-4.39-1.76-7.19v-.68c0-2.8.59-5.18,1.76-7.16,1.17-1.98,2.76-3.5,4.77-4.56s4.26-1.6,6.74-1.6,4.6.46,6.35,1.36c1.75.91,3.16,2.12,4.22,3.62,1.07,1.5,1.76,3.16,2.07,4.98l-5.25,1.1c-.18-1.15-.54-2.2-1.1-3.15-.56-.94-1.35-1.7-2.36-2.26-1.02-.56-2.29-.84-3.83-.84s-2.86.34-4.06,1.02c-1.2.68-2.16,1.66-2.86,2.94-.7,1.28-1.05,2.82-1.05,4.64v.47c0,1.82.35,3.38,1.05,4.67.7,1.29,1.65,2.27,2.86,2.94,1.21.66,2.56,1,4.06,1,2.27,0,4-.59,5.19-1.76,1.19-1.17,1.94-2.67,2.26-4.48l5.24,1.21c-.42,1.78-1.16,3.43-2.23,4.93s-2.47,2.7-4.22,3.59c-1.75.89-3.86,1.34-6.35,1.34Z"/><path class="cls-5" d="M788.93,187.72c-2.59,0-4.89-.53-6.9-1.6-2.01-1.07-3.59-2.6-4.75-4.59-1.15-1.99-1.73-4.35-1.73-7.08v-.79c0-2.73.58-5.08,1.73-7.05,1.15-1.98,2.74-3.51,4.75-4.59,2.01-1.08,4.31-1.63,6.9-1.63s4.9.54,6.92,1.63c2.03,1.08,3.62,2.61,4.77,4.59,1.15,1.98,1.73,4.33,1.73,7.05v.79c0,2.73-.58,5.09-1.73,7.08-1.15,1.99-2.75,3.52-4.77,4.59s-4.34,1.6-6.92,1.6ZM788.93,182.9c2.38,0,4.31-.76,5.8-2.28,1.49-1.52,2.23-3.63,2.23-6.32v-.47c0-2.69-.74-4.8-2.2-6.32-1.47-1.52-3.41-2.28-5.82-2.28s-4.26.76-5.74,2.28c-1.49,1.52-2.23,3.63-2.23,6.32v.47c0,2.69.74,4.8,2.23,6.32,1.48,1.52,3.4,2.28,5.74,2.28Z"/><path class="cls-5" d="M809.59,186.99v-25.86h5.3v3.88h.84c.49-1.05,1.36-2.03,2.62-2.94,1.26-.91,3.13-1.36,5.61-1.36,1.96,0,3.7.44,5.22,1.31,1.52.88,2.72,2.11,3.59,3.7.87,1.59,1.31,3.51,1.31,5.74v15.53h-5.4v-15.11c0-2.24-.56-3.89-1.68-4.96-1.12-1.07-2.66-1.6-4.62-1.6-2.24,0-4.03.73-5.37,2.2-1.35,1.47-2.02,3.6-2.02,6.4v13.06h-5.4Z"/><path class="cls-6" d="M856.12,186.99v-36.72h5.67v36.72h-5.67Z"/><path class="cls-6" d="M867.23,186.99l10.49-36.72h9.97l10.44,36.72h-5.82l-2.41-8.65h-14.37l-2.42,8.65h-5.87ZM876.94,173.09h11.54l-5.35-19.3h-.84l-5.35,19.3Z"/><path class="cls-5" d="M321.77,192.22V44.22h64.27c9.3,0,17.41,1.62,24.31,4.86,6.91,3.24,12.26,7.82,16.07,13.74,3.8,5.92,5.71,12.9,5.71,20.93v2.54c0,8.88-2.11,16.07-6.34,21.56-4.23,5.5-9.45,9.52-15.64,12.05v3.81c5.64.28,10,2.22,13.11,5.81,3.1,3.6,4.65,8.35,4.65,14.27v48.41h-27.91v-44.4c0-3.38-.88-6.13-2.64-8.25-1.77-2.11-4.69-3.17-8.78-3.17h-38.9v55.82h-27.91ZM349.68,111.03h33.4c6.63,0,11.81-1.8,15.54-5.39,3.73-3.6,5.6-8.35,5.6-14.27v-2.11c0-5.92-1.83-10.68-5.5-14.27-3.67-3.6-8.88-5.39-15.65-5.39h-33.4v41.44Z"/><path class="cls-5" d="M492.81,195.18c-10.43,0-19.63-2.22-27.59-6.66-7.96-4.44-14.16-10.71-18.61-18.82-4.44-8.11-6.66-17.65-6.66-28.65v-2.54c0-10.99,2.18-20.54,6.55-28.65,4.36-8.1,10.5-14.38,18.39-18.82s17.05-6.66,27.48-6.66,19.24,2.29,26.85,6.87c7.61,4.58,13.53,10.93,17.76,19.03,4.23,8.11,6.34,17.52,6.34,28.22v9.09h-76.32c.28,7.19,2.96,13.04,8.04,17.55s11.27,6.76,18.61,6.76,12.97-1.62,16.49-4.86c3.52-3.24,6.2-6.84,8.04-10.78l21.77,11.41c-1.98,3.67-4.83,7.65-8.56,11.95-3.73,4.3-8.7,7.96-14.91,10.99-6.2,3.03-14.09,4.55-23.68,4.55ZM467.23,127.74h49.05c-.57-6.06-3-10.92-7.29-14.59-4.3-3.66-9.9-5.5-16.81-5.5s-12.89,1.83-17.12,5.5c-4.23,3.67-6.84,8.53-7.82,14.59Z"/><path class="cls-5" d="M577.8,192.22l-33.4-104.86h28.33l24.31,85.41h3.81l24.32-85.41h28.33l-33.4,104.86h-42.28Z"/><path class="cls-5" d="M673.78,75.09c-4.79,0-8.85-1.55-12.15-4.65-3.31-3.1-4.97-7.19-4.97-12.26s1.66-9.16,4.97-12.26c3.31-3.1,7.36-4.65,12.15-4.65s9.02,1.55,12.26,4.65c3.24,3.1,4.86,7.19,4.86,12.26s-1.62,9.16-4.86,12.26c-3.24,3.1-7.33,4.65-12.26,4.65ZM660.46,192.22v-104.86h26.64v104.86h-26.64Z"/></svg>
